<!DOCTYPE svg PUBLIC "-//W3C//DTD SVG 1.1//EN" "http://www.w3.org/Graphics/SVG/1.1/DTD/svg11.dtd">
<!-- Uploaded to: SVG Repo, www.svgrepo.com, Transformed by: SVG Repo Mixer Tools -->
<svg fill="#7209b7" height="800px" width="800px" version="1.1" id="Capa_1" xmlns="http://www.w3.org/2000/svg" xmlns:xlink="http://www.w3.org/1999/xlink" viewBox="0 0 297 297" xml:space="preserve" stroke="#7209b7">
<g id="SVGRepo_bgCarrier" stroke-width="0"/>
<g id="SVGRepo_tracerCarrier" stroke-linecap="round" stroke-linejoin="round"/>
<g id="SVGRepo_iconCarrier"> <g> <path d="M112.314,89.335c0.108-0.071,0.214-0.146,0.319-0.222c2.909-2.113,6.992-1.466,9.102,1.439 c2.112,2.908,1.465,6.993-1.443,9.107c-4.48,3.257-5.47,9.527-2.215,14.006c3.257,4.481,9.528,5.469,14.006,2.215 c11.848-8.613,14.484-25.26,5.878-37.111c-8.568-11.794-25.095-14.462-36.935-6.007l-84.303,56.368 c-2.286,1.529-1.906,2.779,0.844,2.779h26.076c2.75,0,6.87-1.251,9.156-2.779L112.314,89.335z"/> <path d="M186.79,89.335l59.515,39.794c2.286,1.529,6.406,2.779,9.156,2.779h26.076c2.75,0,3.13-1.251,0.844-2.779l-84.303-56.368 c-11.844-8.458-28.369-5.787-36.936,6.008c-8.606,11.851-5.969,28.498,5.879,37.11c4.478,3.254,10.748,2.264,14.006-2.215 c3.256-4.479,2.265-10.749-2.215-14.006c-2.908-2.114-3.555-6.199-1.444-9.106c2.111-2.907,6.197-3.553,9.103-1.44 C186.575,89.19,186.682,89.264,186.79,89.335z"/> </g> <path d="M2.471,145.946c-1.363,0-2.471,1.108-2.471,2.471v78.288c0,1.362,1.108,2.47,2.471,2.47h116.691 c1.217,0,2.268-0.909,2.444-2.114l7.911-45.561h37.967l7.911,45.561c0.176,1.205,1.227,2.114,2.445,2.114h116.69 c1.363,0,2.471-1.108,2.471-2.47v-78.288c0-1.363-1.108-2.471-2.471-2.471H2.471z"/> </g>
</svg>